{
  "accessors": [
    {
      "bufferView": 1,
      "componentType": 5126,
      "count": 1728,
      "max": [
        3.0247199535369873,
        3.0247199535369873,
        5.5764398574829102
      ],
      "min": [
        -3.0247199535369873,
        -3.0247199535369873,
        -0.057730000466108322
      ],
      "type": "VEC3"
    },
    {
      "bufferView": 1,
      "byteOffset": 20736,
      "componentType": 5126,
      "count": 1728,
      "max": [
        0.99720829725265503,
        0.99727118015289307,
        1
      ],
      "min": [
        -0.99727118015289307,
        -0.99705243110656738,
        -1
      ],
      "type": "VEC3"
    },
    {
      "bufferView": 0,
      "componentType": 5125,
      "count": 3774,
      "max": [
        1727
      ],
      "min": [
        0
      ],
      "type": "SCALAR"
    }
  ],
  "asset": {
    "extras": {
      "author": "Tiia Tuulia (https://sketchfab.com/tiiatuulia)",
      "license": "CC-BY-4.0 (http://creativecommons.org/licenses/by/4.0/)",
      "source": "https://sketchfab.com/models/f1cdedbcc09d43e9b2a7e57f68028c94",
      "title": "Baroque Table"
    },
    "generator": "Sketchfab-3.18.7",
    "version": "2.0"
  },
  "bufferViews": [
    {
      "buffer": 0,
      "byteLength": 15096,
      "byteOffset": 0,
      "name": "floatBufferViews",
      "target": 34963
    },
    {
      "buffer": 0,
      "byteLength": 41472,
      "byteOffset": 15096,
      "byteStride": 12,
      "name": "floatBufferViews",
      "target": 34962
    }
  ],
  "buffers": [
    {
      "byteLength": 56568,
      "uri": "scene.bin"
    }
  ],
  "extensionsRequired": [
    "KHR_materials_pbrSpecularGlossiness"
  ],
  "extensionsUsed": [
    "KHR_materials_pbrSpecularGlossiness"
  ],
  "materials": [
    {
      "doubleSided": true,
      "emissiveFactor": [
        0,
        0,
        0
      ],
      "extensions": {
        "KHR_materials_pbrSpecularGlossiness": {
          "diffuseFactor": [
            0.0048956256,
            0.0008339059,
            0.00047870109999999998,
            1
          ],
          "glossinessFactor": 0.88852896339999998,
          "specularFactor": [
            0.37366615850000001,
            0.37366615850000001,
            0.37366615850000001
          ]
        }
      },
      "name": "chair"
    }
  ],
  "meshes": [
    {
      "name": "Table_0",
      "primitives": [
        {
          "attributes": {
            "NORMAL": 1,
            "POSITION": 0
          },
          "indices": 2,
          "material": 0,
          "mode": 4
        }
      ]
    }
  ],
  "nodes": [
    {
      "children": [
        1
      ],
      "name": "RootNode (gltf orientation matrix)",
      "rotation": [
        -0.70710678118654746,
        -0,
        -0,
        0.70710678118654757
      ]
    },
    {
      "children": [
        2
      ],
      "name": "RootNode (model correction matrix)"
    },
    {
      "children": [
        3
      ],
      "name": "Root"
    },
    {
      "children": [
        4
      ],
      "matrix": [
        1.13462,
        0,
        0,
        0,
        0,
        1.13462,
        0,
        0,
        0,
        0,
        1.13462,
        0,
        -0.016870000000000003,
        0.0022900000000000008,
        0.041760000000000005,
        1
      ],
      "name": "Table"
    },
    {
      "mesh": 0,
      "name": "Table_0"
    }
  ],
  "scene": 0,
  "scenes": [
    {
      "name": "OSG_Scene",
      "nodes": [
        0
      ]
    }
  ]
}

