{
  "accessors": [
    {
      "bufferView": 2,
      "componentType": 5126,
      "count": 204,
      "max": [
        0.73919820785522461,
        5.9924721717834473,
        0.73891615867614746
      ],
      "min": [
        -0.73878574371337891,
        0.54478180408477783,
        -0.73917973041534424
      ],
      "type": "VEC3"
    },
    {
      "bufferView": 2,
      "byteOffset": 2448,
      "componentType": 5126,
      "count": 204,
      "max": [
        1,
        0.99983149766921997,
        1
      ],
      "min": [
        -1,
        -0.99983149766921997,
        -1
      ],
      "type": "VEC3"
    },
    {
      "bufferView": 3,
      "componentType": 5126,
      "count": 204,
      "max": [
        1,
        0.028813492506742477,
        1,
        1
      ],
      "min": [
        -0.97492808103561401,
        -0.028813499957323074,
        -1,
        1
      ],
      "type": "VEC4"
    },
    {
      "bufferView": 0,
      "componentType": 5125,
      "count": 390,
      "max": [
        203
      ],
      "min": [
        0
      ],
      "type": "SCALAR"
    },
    {
      "bufferView": 2,
      "byteOffset": 4896,
      "componentType": 5126,
      "count": 923,
      "max": [
        0.75,
        6.2538895606994629,
        0.75
      ],
      "min": [
        -0.75,
        0.52577537298202515,
        -0.75
      ],
      "type": "VEC3"
    },
    {
      "bufferView": 2,
      "byteOffset": 15972,
      "componentType": 5126,
      "count": 923,
      "max": [
        1,
        1,
        1
      ],
      "min": [
        -1,
        -1,
        -1
      ],
      "type": "VEC3"
    },
    {
      "bufferView": 3,
      "byteOffset": 3264,
      "componentType": 5126,
      "count": 923,
      "max": [
        1,
        0.41798368096351624,
        1,
        1
      ],
      "min": [
        -0.98871952295303345,
        -0.41593322157859802,
        -1,
        1
      ],
      "type": "VEC4"
    },
    {
      "bufferView": 1,
      "componentType": 5126,
      "count": 923,
      "max": [
        1.0323343276977539,
        0.998008131980896
      ],
      "min": [
        0.0018258931813761592,
        0.001991946017369628
      ],
      "type": "VEC2"
    },
    {
      "bufferView": 0,
      "byteOffset": 1560,
      "componentType": 5125,
      "count": 2520,
      "max": [
        922
      ],
      "min": [
        0
      ],
      "type": "SCALAR"
    }
  ],
  "asset": {
    "extras": {
      "author": "Nick.Amalin (https://sketchfab.com/Nick.Amalin)",
      "license": "CC-BY-4.0 (http://creativecommons.org/licenses/by/4.0/)",
      "source": "https://sketchfab.com/models/60c1b1f74df24898a54968ec3008fc63",
      "title": "Medieval Sci-fi Pillar"
    },
    "generator": "Sketchfab-3.19.6",
    "version": "2.0"
  },
  "bufferViews": [
    {
      "buffer": 0,
      "byteLength": 11640,
      "byteOffset": 0,
      "name": "floatBufferViews",
      "target": 34963
    },
    {
      "buffer": 0,
      "byteLength": 7384,
      "byteOffset": 11640,
      "byteStride": 8,
      "name": "floatBufferViews",
      "target": 34962
    },
    {
      "buffer": 0,
      "byteLength": 27048,
      "byteOffset": 19024,
      "byteStride": 12,
      "name": "floatBufferViews",
      "target": 34962
    },
    {
      "buffer": 0,
      "byteLength": 18032,
      "byteOffset": 46072,
      "byteStride": 16,
      "name": "floatBufferViews",
      "target": 34962
    }
  ],
  "buffers": [
    {
      "byteLength": 64104,
      "uri": "scene.bin"
    }
  ],
  "images": [
    {
      "uri": "textures/Metaltexture01_normal.png"
    },
    {
      "uri": "textures/Metaltexture01_metallicRoughness.png"
    }
  ],
  "materials": [
    {
      "doubleSided": true,
      "emissiveFactor": [
        0.5804360513444462,
        1,
        1
      ],
      "name": "Blue_neon",
      "pbrMetallicRoughness": {
        "baseColorFactor": [
          0.44600000000000001,
          1,
          1,
          1
        ],
        "metallicFactor": 0,
        "roughnessFactor": 0.59999999999999998
      }
    },
    {
      "doubleSided": true,
      "emissiveFactor": [
        0,
        0,
        0
      ],
      "name": "Metaltexture01",
      "normalTexture": {
        "index": 0,
        "scale": 1,
        "texCoord": 0
      },
      "pbrMetallicRoughness": {
        "baseColorFactor": [
          0.61988636360000005,
          0.61988636360000005,
          0.61988636360000005,
          1
        ],
        "metallicFactor": 1,
        "metallicRoughnessTexture": {
          "index": 1,
          "texCoord": 0
        },
        "roughnessFactor": 1
      }
    }
  ],
  "meshes": [
    {
      "name": "pCylinder4_Blue_neon_0",
      "primitives": [
        {
          "attributes": {
            "NORMAL": 1,
            "POSITION": 0,
            "TANGENT": 2
          },
          "indices": 3,
          "material": 0,
          "mode": 4
        }
      ]
    },
    {
      "name": "pCylinder4_Metaltexture01_0",
      "primitives": [
        {
          "attributes": {
            "NORMAL": 5,
            "POSITION": 4,
            "TANGENT": 6,
            "TEXCOORD_0": 7
          },
          "indices": 8,
          "material": 1,
          "mode": 4
        }
      ]
    }
  ],
  "nodes": [
    {
      "children": [
        1
      ],
      "name": "RootNode (gltf orientation matrix)",
      "rotation": [
        -0.70710678118654746,
        -0,
        -0,
        0.70710678118654757
      ]
    },
    {
      "children": [
        2
      ],
      "name": "RootNode (model correction matrix)"
    },
    {
      "children": [
        3
      ],
      "matrix": [
        1,
        0,
        0,
        0,
        0,
        0,
        1,
        0,
        0,
        -1,
        0,
        0,
        0,
        0,
        0,
        1
      ],
      "name": "b68a21184c04474ebd1c42b059ca8599.fbx"
    },
    {
      "children": [
        4
      ],
      "name": "RootNode"
    },
    {
      "children": [
        5,
        6
      ],
      "matrix": [
        1,
        0,
        0,
        0,
        0,
        1,
        0,
        0,
        0,
        0,
        1,
        0,
        -2.1034574508666992,
        0,
        0.53562712669372559,
        1
      ],
      "name": "pCylinder4"
    },
    {
      "mesh": 0,
      "name": "pCylinder4_Blue_neon_0"
    },
    {
      "mesh": 1,
      "name": "pCylinder4_Metaltexture01_0"
    }
  ],
  "samplers": [
    {
      "magFilter": 9729,
      "minFilter": 9987,
      "wrapS": 10497,
      "wrapT": 10497
    }
  ],
  "scene": 0,
  "scenes": [
    {
      "name": "OSG_Scene",
      "nodes": [
        0
      ]
    }
  ],
  "textures": [
    {
      "sampler": 0,
      "source": 0
    },
    {
      "sampler": 0,
      "source": 1
    }
  ]
}

