{
  "accessors": [
    {
      "bufferView": 1,
      "componentType": 5126,
      "count": 617,
      "max": [
        29.763589859008789,
        34.368034362792969,
        4.2932872772216797
      ],
      "min": [
        -29.763589859008789,
        -34.368034362792969,
        0
      ],
      "type": "VEC3"
    },
    {
      "bufferView": 1,
      "byteOffset": 7404,
      "componentType": 5126,
      "count": 617,
      "max": [
        1,
        0.86602550745010376,
        1
      ],
      "min": [
        -1,
        -0.86602550745010376,
        -1
      ],
      "type": "VEC3"
    },
    {
      "bufferView": 2,
      "componentType": 5126,
      "count": 617,
      "max": [
        1,
        1,
        0.69201534986495972,
        1
      ],
      "min": [
        -0.89382100105285645,
        -1,
        -0.69201534986495972,
        1
      ],
      "type": "VEC4"
    },
    {
      "bufferView": 0,
      "componentType": 5125,
      "count": 1992,
      "max": [
        616
      ],
      "min": [
        0
      ],
      "type": "SCALAR"
    },
    {
      "bufferView": 1,
      "byteOffset": 14808,
      "componentType": 5126,
      "count": 130,
      "max": [
        28.708309173583984,
        32.007968902587891,
        4.0094103813171387
      ],
      "min": [
        -28.708309173583984,
        -33.149501800537109,
        3.1577773094177246
      ],
      "type": "VEC3"
    },
    {
      "bufferView": 1,
      "byteOffset": 16368,
      "componentType": 5126,
      "count": 130,
      "max": [
        0.69201534986495972,
        0.59930324554443359,
        0.99848616123199463
      ],
      "min": [
        -0.69201534986495972,
        -0.59930288791656494,
        0.7218824028968811
      ],
      "type": "VEC3"
    },
    {
      "bufferView": 2,
      "byteOffset": 9872,
      "componentType": 5126,
      "count": 130,
      "max": [
        1,
        0.0067220479249954224,
        0.69201534986495972,
        1
      ],
      "min": [
        0.72188282012939453,
        -0.05068974569439888,
        -0.69201534986495972,
        1
      ],
      "type": "VEC4"
    },
    {
      "bufferView": 0,
      "byteOffset": 7968,
      "componentType": 5125,
      "count": 384,
      "max": [
        129
      ],
      "min": [
        0
      ],
      "type": "SCALAR"
    }
  ],
  "asset": {
    "extras": {
      "author": "tomciomalina (https://sketchfab.com/tomciomalina)",
      "license": "CC-BY-SA-4.0 (http://creativecommons.org/licenses/by-sa/4.0/)",
      "source": "https://sketchfab.com/models/e6c50859b7e841bc99b229f27f2e3fb9",
      "title": "Sci-fi Coin"
    },
    "generator": "Sketchfab-3.18.7",
    "version": "2.0"
  },
  "bufferViews": [
    {
      "buffer": 0,
      "byteLength": 9504,
      "byteOffset": 0,
      "name": "floatBufferViews",
      "target": 34963
    },
    {
      "buffer": 0,
      "byteLength": 17928,
      "byteOffset": 9504,
      "byteStride": 12,
      "name": "floatBufferViews",
      "target": 34962
    },
    {
      "buffer": 0,
      "byteLength": 11952,
      "byteOffset": 27432,
      "byteStride": 16,
      "name": "floatBufferViews",
      "target": 34962
    }
  ],
  "buffers": [
    {
      "byteLength": 39384,
      "uri": "scene.bin"
    }
  ],
  "materials": [
    {
      "doubleSided": true,
      "emissiveFactor": [
        0,
        0,
        0
      ],
      "name": "Material_161_Tube004",
      "pbrMetallicRoughness": {
        "baseColorFactor": [
          0,
          0,
          0,
          1
        ],
        "metallicFactor": 0,
        "roughnessFactor": 0.087080792700000006
      }
    },
    {
      "doubleSided": true,
      "emissiveFactor": [
        0,
        0,
        0
      ],
      "name": "14_-_Default",
      "pbrMetallicRoughness": {
        "baseColorFactor": [
          1,
          0.96020838269999997,
          0,
          1
        ],
        "metallicFactor": 0.36147103660000002,
        "roughnessFactor": 1
      }
    }
  ],
  "meshes": [
    {
      "name": "Tube004_Material #161 [Tube004]_0",
      "primitives": [
        {
          "attributes": {
            "NORMAL": 1,
            "POSITION": 0,
            "TANGENT": 2
          },
          "indices": 3,
          "material": 0,
          "mode": 4
        }
      ]
    },
    {
      "name": "Tube004_14 - Default_0",
      "primitives": [
        {
          "attributes": {
            "NORMAL": 5,
            "POSITION": 4,
            "TANGENT": 6
          },
          "indices": 7,
          "material": 1,
          "mode": 4
        }
      ]
    }
  ],
  "nodes": [
    {
      "children": [
        1
      ],
      "name": "RootNode (gltf orientation matrix)",
      "rotation": [
        -0.70710678118654746,
        -0,
        -0,
        0.70710678118654757
      ]
    },
    {
      "children": [
        2
      ],
      "name": "RootNode (model correction matrix)"
    },
    {
      "children": [
        3
      ],
      "matrix": [
        1,
        0,
        0,
        0,
        0,
        0,
        1,
        0,
        0,
        -1,
        0,
        0,
        0,
        0,
        0,
        1
      ],
      "name": "463a1c194f0c445aa12eafcb5ce30cb3.fbx"
    },
    {
      "children": [
        4
      ],
      "name": "RootNode"
    },
    {
      "children": [
        5,
        6
      ],
      "matrix": [
        1,
        0,
        0,
        0,
        0,
        5.9604644664368323e-08,
        -0.99999999999999833,
        0,
        0,
        0.99999999999999833,
        5.9604644664368323e-08,
        0,
        1.6862630844116211,
        29.250064849853516,
        -0.0099945068359375,
        1
      ],
      "name": "Tube004"
    },
    {
      "mesh": 0,
      "name": "Tube004_Material #161 [Tube004]_0"
    },
    {
      "mesh": 1,
      "name": "Tube004_14 - Default_0"
    }
  ],
  "scene": 0,
  "scenes": [
    {
      "name": "OSG_Scene",
      "nodes": [
        0
      ]
    }
  ]
}

